<svg width="68" height="68" viewBox="0 0 68 68" fill="none" xmlns="http://www.w3.org/2000/svg">
<g clip-path="url(#clip0_32_731)">
<path fill-rule="evenodd" clip-rule="evenodd" d="M55.7843 1.84086C55.6807 1.42329 55.4681 1.04074 55.1681 0.732335C54.8681 0.423932 54.4916 0.200753 54.077 0.0856297C53.6625 -0.0294931 53.2248 -0.0324268 52.8088 0.0771288C52.3927 0.186684 52.0133 0.404796 51.7092 0.70915L41.9949 10.4234C41.6986 10.7203 41.4843 11.0889 41.3728 11.4932C41.2613 11.8975 41.2564 12.3238 41.3586 12.7306L43.1072 19.7443L43.0392 19.8123L31.4257 31.4257C30.7823 32.1163 30.432 33.0297 30.4486 33.9734C30.4653 34.9172 30.8476 35.8176 31.515 36.485C32.1824 37.1525 33.0829 37.5348 34.0266 37.5514C34.9704 37.5681 35.8838 37.2178 36.5743 36.5743L48.1975 24.9657L48.2655 24.8929L55.2743 26.6463C55.6811 26.7485 56.1074 26.7436 56.5117 26.6321C56.916 26.5206 57.2846 26.3063 57.5815 26.01L67.2957 16.2957C67.6014 15.9918 67.8206 15.6119 67.9309 15.1952C68.0412 14.7786 68.0386 14.34 67.9234 13.9247C67.8082 13.5093 67.5845 13.1321 67.2753 12.8318C66.9661 12.5314 66.5826 12.3188 66.164 12.2157L57.8632 10.1466L55.7843 1.84086ZM35.5397 3.68658C35.6065 4.65009 35.2879 5.60066 34.6539 6.32932C34.02 7.05797 33.1227 7.50506 32.1592 7.57229C27.0844 7.92398 22.2173 9.72513 18.1361 12.7617C14.055 15.7983 10.9313 19.9427 9.13638 24.7024C7.34143 29.4622 6.95063 34.6371 8.01042 39.6124C9.0702 44.5878 11.536 49.1542 15.1149 52.7693C18.6937 56.3844 23.2351 58.896 28.1995 60.0058C33.1639 61.1157 38.3426 60.777 43.1201 59.03C47.8977 57.2831 52.0733 54.2013 55.1508 50.151C58.2284 46.1006 60.0784 41.2518 60.4812 36.1809C60.5578 35.2173 61.0141 34.3236 61.7496 33.6965C62.4852 33.0693 63.4397 32.7601 64.4033 32.8367C65.3669 32.9134 66.2605 33.3697 66.8877 34.1052C67.5148 34.8407 67.8241 35.7953 67.7475 36.7589C67.2335 43.2199 64.8755 49.3976 60.9538 54.558C57.0321 59.7184 51.7115 63.6446 45.6241 65.8701C39.5367 68.0956 32.9383 68.5269 26.613 67.1127C20.2877 65.6984 14.5013 62.4982 9.94131 57.8922C5.38129 53.2861 2.23932 47.4679 0.888701 41.1287C-0.46192 34.7895 0.0355782 28.1958 2.32209 22.1311C4.6086 16.0663 8.58801 10.7854 13.7875 6.9157C18.9871 3.04602 25.1881 0.750253 31.654 0.30115C32.6175 0.23442 33.5681 0.553044 34.2968 1.18697C35.0254 1.8209 35.4725 2.7231 35.5397 3.68658ZM32.2757 19.7054C32.4503 20.151 32.5353 20.6265 32.5261 21.1049C32.5168 21.5833 32.4133 22.0552 32.2216 22.4936C32.0299 22.9321 31.7537 23.3284 31.4088 23.6601C31.0639 23.9917 30.6571 24.2522 30.2115 24.4266C28.6185 25.0514 27.2064 26.0634 26.1028 27.371C24.9991 28.6786 24.2387 30.2406 23.8903 31.9158C23.5418 33.5911 23.6164 35.3267 24.1071 36.9659C24.5979 38.6052 25.4894 40.0962 26.7011 41.3044C27.9128 42.5126 29.4064 43.3997 31.0471 43.8857C32.6877 44.3717 34.4236 44.4412 36.0978 44.0879C37.772 43.7346 39.3318 42.9696 40.6362 41.8621C41.9406 40.7547 42.9484 39.3396 43.5686 37.7449C43.7421 37.299 44.0017 36.8917 44.3326 36.5462C44.6635 36.2006 45.0593 35.9237 45.4972 35.7311C45.9352 35.5385 46.4067 35.4341 46.8851 35.4237C47.3634 35.4134 47.839 35.4974 48.2849 35.6709C48.7307 35.8444 49.1381 36.104 49.4836 36.4349C49.8291 36.7658 50.1061 37.1615 50.2987 37.5995C50.4912 38.0374 50.5957 38.509 50.606 38.9873C50.6164 39.4656 50.5324 39.9413 50.3589 40.3871C49.2996 43.1105 47.5782 45.5268 45.3505 47.4178C43.1227 49.3087 40.4588 50.6147 37.5996 51.2175C34.7403 51.8204 31.7759 51.7011 28.9744 50.8705C26.1728 50.04 23.6224 48.5243 21.5538 46.4604C19.4851 44.3966 17.9634 41.8498 17.1263 39.0502C16.2891 36.2506 16.1629 33.2865 16.7591 30.4259C17.3552 27.5652 18.6549 24.8983 20.5406 22.6661C22.4263 20.4339 24.8386 18.7069 27.5595 17.6411C28.4587 17.2902 29.4604 17.3104 30.3447 17.6975C31.229 18.0845 31.9235 18.8067 32.2757 19.7054Z" fill="#F7B006"/>
</g>
<defs>
<clipPath id="clip0_32_731">
<rect width="68" height="68" fill="white"/>
</clipPath>
</defs>
</svg>
